<?xml version="1.0" encoding="UTF-8" standalone="no"?> <svg width="64" height="64" viewBox="0 0 64 64" fill="none" xmlns="http://www.w3.org/2000/svg">
<path d="M38 40.57H34.48C34.2021 39.5793 33.806 38.6258 33.3 37.73L35.82 35.21C35.9137 35.117 35.9881 35.0064 36.0389 34.8845C36.0897 34.7627 36.1158 34.632 36.1158 34.5C36.1158 34.3679 36.0897 34.2372 36.0389 34.1154C35.9881 33.9935 35.9137 33.8829 35.82 33.79L32.33 30.3C32.237 30.2062 32.1264 30.1318 32.0046 30.0811C31.8827 30.0303 31.752 30.0042 31.62 30.0042C31.488 30.0042 31.3573 30.0303 31.2354 30.0811C31.1136 30.1318 31.003 30.2062 30.91 30.3L28.39 32.82C27.4973 32.3173 26.547 31.9245 25.56 31.65V28.08C25.56 27.8147 25.4546 27.5604 25.2671 27.3728C25.0796 27.1853 24.8252 27.08 24.56 27.08H19.61C19.3448 27.08 19.0904 27.1853 18.9029 27.3728C18.7154 27.5604 18.61 27.8147 18.61 28.08V31.65C17.6223 31.9226 16.6719 32.3155 15.78 32.82L13.25 30.3C13.0626 30.1137 12.8092 30.0092 12.545 30.0092C12.2808 30.0092 12.0274 30.1137 11.84 30.3L8.34 33.79C8.24627 33.8829 8.17187 33.9935 8.1211 34.1154C8.07034 34.2372 8.0442 34.3679 8.0442 34.5C8.0442 34.632 8.07034 34.7627 8.1211 34.8845C8.17187 35.0064 8.24627 35.117 8.34 35.21L10.86 37.73C10.3572 38.6261 9.9644 39.5797 9.68999 40.57H6.12C5.85478 40.57 5.60042 40.6753 5.41289 40.8628C5.22535 41.0504 5.12 41.3047 5.12 41.57V46.51C5.12 46.7752 5.22535 47.0295 5.41289 47.2171C5.60042 47.4046 5.85478 47.51 6.12 47.51H9.68999C9.9644 48.5002 10.3572 49.4538 10.86 50.35L8.34 52.87C8.15374 53.0573 8.0492 53.3108 8.0492 53.575C8.0492 53.8391 8.15374 54.0926 8.34 54.28L11.84 57.78C12.0274 57.9662 12.2808 58.0707 12.545 58.0707C12.8092 58.0707 13.0626 57.9662 13.25 57.78L15.77 55.26C16.6658 55.7659 17.6194 56.1621 18.61 56.44V60C18.61 60.2652 18.7154 60.5195 18.9029 60.7071C19.0904 60.8946 19.3448 61 19.61 61H24.56C24.8252 61 25.0796 60.8946 25.2671 60.7071C25.4546 60.5195 25.56 60.2652 25.56 60V56.44C26.5474 56.162 27.4976 55.7658 28.39 55.26L30.91 57.78C31.0034 57.8726 31.1143 57.946 31.2361 57.9957C31.3579 58.0455 31.4884 58.0707 31.62 58.07C31.7516 58.0707 31.8821 58.0455 32.0039 57.9957C32.1257 57.946 32.2366 57.8726 32.33 57.78L35.82 54.28C36.0062 54.0926 36.1108 53.8391 36.1108 53.575C36.1108 53.3108 36.0062 53.0573 35.82 52.87L33.3 50.35C33.806 49.4541 34.2021 48.5006 34.48 47.51H38C38.2652 47.51 38.5196 47.4046 38.7071 47.2171C38.8946 47.0295 39 46.7752 39 46.51V41.57C39 41.3047 38.8946 41.0504 38.7071 40.8628C38.5196 40.6753 38.2652 40.57 38 40.57Z" fill="#383838"/>
<path d="M19.24 16.6299L21.65 17.0699C21.7194 17.7258 21.8568 18.3726 22.06 18.9999L20.06 20.3899C19.9514 20.4638 19.8584 20.5584 19.7864 20.6682C19.7143 20.778 19.6646 20.9009 19.64 21.0299C19.616 21.1593 19.6178 21.2922 19.6453 21.4209C19.6727 21.5496 19.7253 21.6716 19.8 21.7799L21.89 24.7799C22.0399 24.9987 22.2705 25.149 22.5312 25.1978C22.7919 25.2466 23.0612 25.1898 23.28 25.0399L25.28 23.6499C25.7897 24.0603 26.3391 24.4188 26.92 24.7199L26.47 27.1299C26.4233 27.3897 26.4812 27.6575 26.631 27.8748C26.7809 28.0921 27.0106 28.2413 27.27 28.2899L30.89 28.9599C31.1498 29.0067 31.4176 28.9488 31.6349 28.799C31.8522 28.6491 32.0014 28.4194 32.05 28.1599L32.5 25.7499C33.1521 25.6778 33.7954 25.5405 34.42 25.3399L35.81 27.3399C35.9019 27.4724 36.0245 27.5807 36.1673 27.6556C36.3101 27.7304 36.4688 27.7697 36.63 27.7699C37.01 27.9299 39.63 25.8299 40.22 25.5199C40.4388 25.3701 40.5891 25.1395 40.6379 24.8788C40.6866 24.6181 40.6299 24.3488 40.48 24.1299L39.09 22.1299C39.5059 21.6207 39.8647 21.0674 40.16 20.4799L42.57 20.9299C42.6994 20.9545 42.8324 20.9533 42.9613 20.9264C43.0902 20.8995 43.2125 20.8474 43.3212 20.773C43.43 20.6987 43.5229 20.6036 43.5948 20.4933C43.6667 20.3829 43.716 20.2594 43.74 20.1299L44.41 16.5199C44.4346 16.3906 44.4334 16.2576 44.4065 16.1287C44.3796 15.9998 44.3275 15.8774 44.2531 15.7687C44.1788 15.66 44.0837 15.5671 43.9734 15.4952C43.863 15.4233 43.7395 15.374 43.61 15.3499L41.2 14.8999C41.1283 14.2543 40.9909 13.6177 40.79 12.9999L42.79 11.6099C43.0056 11.4589 43.1529 11.2289 43.2 10.9699C43.224 10.8406 43.2222 10.7077 43.1948 10.579C43.1673 10.4503 43.1147 10.3283 43.04 10.2199L41 7.19994C40.8502 6.98116 40.6196 6.83085 40.3589 6.7821C40.0982 6.73334 39.8289 6.79012 39.61 6.93994L37.61 8.32994C37.1004 7.91958 36.551 7.56114 35.97 7.25994L36.42 4.84994C36.4431 4.72059 36.4404 4.58796 36.4122 4.45963C36.3839 4.33131 36.3307 4.20982 36.2554 4.10209C36.1802 3.99436 36.0845 3.90251 35.9737 3.83179C35.863 3.76107 35.7394 3.71287 35.61 3.68994L32 2.99994C31.7402 2.95319 31.4725 3.01106 31.2552 3.16092C31.0379 3.31079 30.8887 3.54049 30.84 3.79994L30.39 6.20994C29.7379 6.28206 29.0947 6.41942 28.47 6.61994L27 4.61994C26.8502 4.40116 26.6196 4.25085 26.3589 4.2021C26.0982 4.15334 25.8289 4.21012 25.61 4.35994L22.61 6.43994C22.3929 6.59135 22.2446 6.8227 22.1977 7.08327C22.1508 7.34383 22.2092 7.61235 22.36 7.82994L23.75 9.82994C23.3363 10.3372 22.9776 10.8869 22.68 11.4699L20.27 11.0299C20.1407 11.0053 20.0077 11.0065 19.8788 11.0335C19.7499 11.0604 19.6275 11.1125 19.5188 11.1869C19.4101 11.2612 19.3172 11.3563 19.2453 11.4666C19.1734 11.577 19.1241 11.7005 19.1 11.8299L18.43 15.4399C18.4026 15.5715 18.4019 15.7072 18.4281 15.839C18.4542 15.9708 18.5067 16.0959 18.5823 16.207C18.6579 16.3181 18.7551 16.4128 18.8681 16.4854C18.9811 16.5581 19.1076 16.6073 19.24 16.6299Z" fill="#383838"/>
<path d="M57.88 27.5799H56.29C56.1828 27.2352 56.0456 26.9006 55.88 26.5799C56.22 26.1699 57.37 25.3799 57.3 24.7599C57.3008 24.6283 57.2755 24.4978 57.2258 24.376C57.176 24.2542 57.1027 24.1433 57.01 24.0499L55.12 22.1599C54.9326 21.9737 54.6792 21.8691 54.415 21.8691C54.1508 21.8691 53.8974 21.9737 53.71 22.1599L52.59 23.2799C52.2656 23.1224 51.9316 22.9854 51.59 22.8699C51.53 22.3399 51.78 20.9699 51.3 20.5799C51.2074 20.4854 51.0969 20.4102 50.9751 20.3588C50.8532 20.3073 50.7223 20.2805 50.59 20.2799H47.93C47.6648 20.2799 47.4104 20.3853 47.2229 20.5728C47.0354 20.7603 46.93 21.0147 46.93 21.2799V22.8599C46.5884 22.9754 46.2544 23.1124 45.93 23.2699L44.81 22.1499C44.6226 21.9637 44.3692 21.8591 44.105 21.8591C43.8408 21.8591 43.5874 21.9637 43.4 22.1499L41.5 23.9999C40.57 24.9999 42.05 25.8799 42.62 26.5399C42.4582 26.8624 42.3211 27.1967 42.21 27.5399H40.62C40.3548 27.5399 40.1004 27.6453 39.9129 27.8328C39.7254 28.0203 39.62 28.2747 39.62 28.5399V31.2199C39.6211 31.4822 39.7253 31.7336 39.91 31.9199C40.29 32.4099 41.67 32.1599 42.2 32.2199C42.3111 32.5631 42.4482 32.8974 42.61 33.2199L41.48 34.3399C41.3863 34.4329 41.3119 34.5435 41.2611 34.6653C41.2103 34.7872 41.1842 34.9179 41.1842 35.0499C41.1842 35.1819 41.2103 35.3126 41.2611 35.4345C41.3119 35.5563 41.3863 35.6669 41.48 35.7599L43.37 37.6499C44.37 38.5799 45.24 37.1099 45.91 36.5299C46.2322 36.695 46.5665 36.8354 46.91 36.9499V38.5299C46.91 38.7951 47.0154 39.0495 47.2029 39.237C47.3904 39.4245 47.6448 39.5299 47.91 39.5299H50.58C50.7116 39.5307 50.8421 39.5054 50.9639 39.4557C51.0857 39.4059 51.1966 39.3326 51.29 39.2399C51.78 38.8599 51.53 37.4699 51.59 36.9499C51.9316 36.8344 52.2656 36.6974 52.59 36.5399C53 36.8699 53.78 37.9999 54.39 37.9999C54.6523 37.9988 54.9037 37.8946 55.09 37.7099L57 35.7799C57.0937 35.6869 57.1681 35.5763 57.2189 35.4545C57.2697 35.3326 57.2958 35.2019 57.2958 35.0699C57.2958 34.9379 57.2697 34.8072 57.2189 34.6853C57.1681 34.5635 57.0937 34.4529 57 34.3599L55.88 33.2399C56.0408 32.9157 56.1811 32.5817 56.3 32.2399H57.88C58.1452 32.2399 58.3996 32.1346 58.5871 31.947C58.7746 31.7595 58.88 31.5051 58.88 31.2399V28.5799C58.88 28.3147 58.7746 28.0603 58.5871 27.8728C58.3996 27.6853 58.1452 27.5799 57.88 27.5799Z" fill="#383838"/>
<path d="M22.0799 35.3999C19.7962 35.4025 17.6061 36.3081 15.9875 37.9192C14.3689 39.5304 13.4531 41.7162 13.4399 43.9999C13.8899 55.4599 30.2699 55.4499 30.7299 43.9999C30.7167 41.7145 29.7996 39.5271 28.1788 37.9157C26.558 36.3043 24.3654 35.3999 22.0799 35.3999V35.3999ZM22.0799 50.6799C21.205 50.6786 20.3388 50.5046 19.5312 50.168C18.7236 49.8313 17.9904 49.3386 17.3735 48.718C16.7567 48.0975 16.2684 47.3613 15.9366 46.5516C15.6048 45.742 15.436 44.8749 15.4399 43.9999C15.7499 35.2099 28.4399 35.2099 28.7299 43.9999C28.7339 44.8757 28.5648 45.7437 28.2324 46.554C27.9 47.3642 27.4107 48.1009 26.7928 48.7216C26.1749 49.3423 25.4405 49.8348 24.6317 50.1708C23.823 50.5069 22.9558 50.6799 22.0799 50.6799V50.6799Z" fill="white"/>
<path d="M22.08 39.5399C20.8865 39.5399 19.7419 40.014 18.898 40.8579C18.0541 41.7019 17.58 42.8464 17.58 44.0399C17.58 45.2334 18.0541 46.378 18.898 47.2219C19.7419 48.0658 20.8865 48.5399 22.08 48.5399C28 48.3499 28 39.7299 22.08 39.5399ZM22.08 46.5399C21.4169 46.5399 20.781 46.2765 20.3122 45.8077C19.8433 45.3388 19.58 44.703 19.58 44.0399C19.58 43.3769 19.8433 42.741 20.3122 42.2721C20.781 41.8033 21.4169 41.5399 22.08 41.5399C22.743 41.5399 23.3789 41.8033 23.8477 42.2721C24.3166 42.741 24.58 43.3769 24.58 44.0399C24.58 44.703 24.3166 45.3388 23.8477 45.8077C23.3789 46.2765 22.743 46.5399 22.08 46.5399Z" fill="white"/>
<path d="M32.64 9.42995C23.92 8.07995 21.57 20.68 30.21 22.57C38.91 23.91 41.3 11.31 32.64 9.42995ZM36 16.85C34.68 22.85 25.86 21.26 26.79 15.15C28.1 9.09995 37 10.76 36 16.85Z" fill="white"/>
<path d="M32.0801 12.46C31.1412 12.2863 30.1718 12.4926 29.385 13.0337C28.5983 13.5747 28.0588 14.4061 27.8851 15.345C27.7113 16.2839 27.9177 17.2533 28.4587 18.04C28.9998 18.8267 29.8312 19.3663 30.7701 19.54C31.2349 19.626 31.7122 19.6196 32.1746 19.5212C32.637 19.4228 33.0755 19.2342 33.4651 18.9663C33.8546 18.6984 34.1876 18.3564 34.4449 17.9598C34.7023 17.5633 34.879 17.1199 34.9651 16.655C35.0511 16.1901 35.0447 15.7129 34.9462 15.2504C34.8478 14.788 34.6593 14.3495 34.3914 13.96C34.1235 13.5705 33.7815 13.2375 33.3849 12.9801C32.9883 12.7228 32.5449 12.546 32.0801 12.46ZM33.0001 16.29C32.9231 16.7077 32.6834 17.0778 32.3337 17.3188C31.9839 17.5597 31.5528 17.6519 31.1351 17.575C30.7173 17.4981 30.3473 17.2584 30.1063 16.9086C29.8653 16.5589 29.7731 16.1277 29.8501 15.71C29.927 15.2923 30.1667 14.9222 30.5164 14.6813C30.8662 14.4403 31.2973 14.3481 31.7151 14.425C32.1328 14.5019 32.5028 14.7416 32.7438 15.0914C32.9848 15.4411 33.077 15.8723 33.0001 16.29V16.29Z" fill="white"/>
<path d="M49.25 25.7C43.72 25.81 43.7 33.9699 49.25 34.0999C54.78 33.9999 54.79 25.85 49.25 25.7ZM50.8 31.4599C50.3862 31.8724 49.8256 32.1035 49.2414 32.1026C48.6573 32.1017 48.0974 31.8687 47.685 31.455C47.2726 31.0412 47.0414 30.4806 47.0423 29.8964C47.0433 29.3122 47.2762 28.7524 47.69 28.34C48.1037 27.9275 48.6643 27.6964 49.2485 27.6973C49.8327 27.6983 50.3926 27.9312 50.805 28.3449C51.2174 28.7587 51.4486 29.3193 51.4476 29.9035C51.4467 30.4877 51.2137 31.0475 50.8 31.4599Z" fill="white"/>
</svg>
